<svg width="272" height="120" viewBox="0 0 272 120" fill="none" xmlns="http://www.w3.org/2000/svg">
<g filter="url(#filter0_d_302815_4207)">
<rect x="4.5" y="0.5" width="263" height="111" rx="3.5" fill="#F4F4FD" stroke="#8E8F99"/>
<g clip-path="url(#clip0_302815_4207)">
<path d="M133.851 53.9292H135.983V63.5242H133.851V53.9292Z" fill="#4D5AE5"/>
<path d="M142.38 58.1936H144.512V63.5242H142.38V58.1936Z" fill="#4D5AE5"/>
<path d="M125.322 61.392H127.454V63.5242H125.322V61.392Z" fill="#4D5AE5"/>
<path d="M118.926 60.3258H121.058V63.5241H118.926V60.3258Z" fill="#4D5AE5"/>
<path d="M107.198 80.5819H158.372C160.138 80.5819 161.57 79.1499 161.57 77.3836V73.1192C161.57 71.3529 160.138 69.9209 158.372 69.9209H157.305V43.3343L163.361 37.5977C164.767 38.2905 166.468 37.8699 167.388 36.6003C168.308 35.3312 168.179 33.5836 167.083 32.4634C165.986 31.3431 164.242 31.176 162.953 32.0678C161.664 32.96 161.206 34.6513 161.868 36.0719L157.305 40.3973V37.9376C157.305 36.1713 155.873 34.7393 154.107 34.7393H111.463C109.696 34.7393 108.264 36.1713 108.264 37.9376V69.9209H107.198C105.432 69.9209 104 71.3529 104 73.1192V77.3836C104 79.1499 105.432 80.5819 107.198 80.5819ZM164.768 33.6732C165.357 33.6732 165.834 34.1505 165.834 34.7393C165.834 35.328 165.357 35.8054 164.768 35.8054C164.179 35.8054 163.702 35.328 163.702 34.7393C163.702 34.1505 164.179 33.6732 164.768 33.6732ZM110.397 37.9376C110.397 37.3489 110.874 36.8715 111.463 36.8715H154.107C154.696 36.8715 155.173 37.3489 155.173 37.9376V42.4149L153.041 44.441V40.0698C153.041 39.4811 152.564 39.0037 151.975 39.0037H113.595C113.006 39.0037 112.529 39.4811 112.529 40.0698V66.7225C112.529 67.3113 113.006 67.7886 113.595 67.7886H151.975C152.564 67.7886 153.041 67.3113 153.041 66.7225V47.3738L155.173 45.3535V69.9209H110.397V37.9376ZM119.992 51.797C118.549 51.7929 117.283 52.7538 116.899 54.1442C116.515 55.5346 117.109 57.0094 118.35 57.7455C119.59 58.4815 121.17 58.2967 122.206 57.2936L125.912 59.1531C126.342 59.3686 126.865 59.2676 127.185 58.9079L135.062 50.0453L142.806 55.848C143.222 56.1593 143.802 56.126 144.178 55.7694L150.909 49.3941V65.6564H114.661V41.1359H150.909V46.4566L143.366 53.5997L135.557 47.7455C135.113 47.4134 134.489 47.4758 134.121 47.8897L126.135 56.8751L123.149 55.3821C123.171 55.2541 123.185 55.125 123.19 54.9953C123.19 53.2291 121.758 51.797 119.992 51.797ZM121.058 54.9953C121.058 55.5841 120.58 56.0615 119.992 56.0615C119.403 56.0615 118.926 55.5841 118.926 54.9953C118.926 54.4066 119.403 53.9292 119.992 53.9292C120.58 53.9292 121.058 54.4066 121.058 54.9953ZM127.454 72.0531H138.115V73.1192C138.115 73.7079 137.638 74.1853 137.049 74.1853H128.52C127.932 74.1853 127.454 73.7079 127.454 73.1192V72.0531ZM106.132 73.1192C106.132 72.5304 106.61 72.0531 107.198 72.0531H125.322V73.1192C125.322 74.8855 126.754 76.3175 128.52 76.3175H137.049C138.816 76.3175 140.248 74.8855 140.248 73.1192V72.0531H158.372C158.96 72.0531 159.438 72.5304 159.438 73.1192V77.3836C159.438 77.9724 158.96 78.4497 158.372 78.4497H107.198C106.61 78.4497 106.132 77.9724 106.132 77.3836V73.1192Z" fill="#2E2F42"/>
</g>
</g>
<defs>
<filter id="filter0_d_302815_4207" x="0" y="0" width="272" height="120" filterUnits="userSpaceOnUse" color-interpolation-filters="sRGB">
<feFlood flood-opacity="0" result="BackgroundImageFix"/>
<feColorMatrix in="SourceAlpha" type="matrix" values="0 0 0 0 0 0 0 0 0 0 0 0 0 0 0 0 0 0 127 0" result="hardAlpha"/>
<feOffset dy="4"/>
<feGaussianBlur stdDeviation="2"/>
<feComposite in2="hardAlpha" operator="out"/>
<feColorMatrix type="matrix" values="0 0 0 0 0 0 0 0 0 0 0 0 0 0 0 0 0 0 0.25 0"/>
<feBlend mode="normal" in2="BackgroundImageFix" result="effect1_dropShadow_302815_4207"/>
<feBlend mode="normal" in="SourceGraphic" in2="effect1_dropShadow_302815_4207" result="shape"/>
</filter>
<clipPath id="clip0_302815_4207">
<rect width="64" height="64" fill="white" transform="translate(104 24)"/>
</clipPath>
</defs>
</svg>
